<svg id="Capa_1" data-name="Capa 1" xmlns="http://www.w3.org/2000/svg" viewBox="0 0 1199.77 241.79"><path d="M-584.16-39.38c.5-2,.92-4,1.51-6a84.88,84.88,0,0,1,3.18-10,47.37,47.37,0,0,1,8.9-13.38c1.86-2,4-3.74,6-5.68,6.35-6.33,12.63-12.73,19-19A37.7,37.7,0,0,1-534.25-101a53.53,53.53,0,0,1,11.17-3.24c3.83-.8,7.61-.67,11.42-.68,20.39,0,40.79-.17,61.18,0A42.34,42.34,0,0,1-419-91.4c7.24,7.58,14.77,14.9,22.23,22.27a47.55,47.55,0,0,1,10.4,14.61,44.66,44.66,0,0,1,3.67,21.46c-.17,2.41-2.69,5.54-5.08,6-4.6.86-9.16,1.94-13.7,3.09a63.69,63.69,0,0,1-10.23,2,8.76,8.76,0,0,0-1.56.54,4,4,0,0,1-5.39-3.83c0-1.27,0-2.55.06-3.83.14-6.38-2-11.93-5.69-17.08-3-4.19-6.71-7.59-10.41-11.06-2.49-2.34-5-4.64-7.49-7a35.05,35.05,0,0,0-11.3-7A37.07,37.07,0,0,0-467-73.86c-10.64-.1-21.28,0-31.91,0a35.51,35.51,0,0,0-12,2,32.09,32.09,0,0,0-11.32,6.62c-6.32,5.91-12.68,11.79-18.46,18.26a24.94,24.94,0,0,0-5.83,10.7,40,40,0,0,0-1,9.26c-.08,28.3-.2,56.61,0,84.91A36,36,0,0,0-537,83.1c2.25,2.34,4.33,4.84,6.66,7.1A61,61,0,0,0-513.09,102c3.74,1.71,7.69,2.53,11.54,3.78a13.26,13.26,0,0,0,4.05.31c9.51,0,19,0,28.54,0,1.84,0,3.68-.05,5.52-.07a30.5,30.5,0,0,0,14.07-4c7.42-3.92,13.12-9.79,18.6-15.93,2.63-2.95,5.12-6,7.55-9.16a25.34,25.34,0,0,0,3.78-7.87c1.09-3.3.73-6.62.8-9.95a9.44,9.44,0,0,1,.34-3.3c.83-2.07,2.77-2.62,4.76-2.44,2.21.21,4.39.77,6.58,1.19,2,.4,4.06.85,6.1,1.22,2.43.45,4.89.77,7.31,1.25s4.81,1,7.16,1.68c3.11.91,4.28,3.41,4.4,6.36a47.19,47.19,0,0,1-1.88,16.1c-2,6.21-4.79,12.09-9.39,16.86-3.86,4-7.87,7.84-11.76,11.81-3.39,3.46-6.75,7-10,10.51a51.72,51.72,0,0,1-14.52,11.29,50.69,50.69,0,0,1-8.76,3.29A47.55,47.55,0,0,1-452,136.74c-20.63,0-41.27-.07-61.9,0a46.77,46.77,0,0,1-10.92-1.14,46.6,46.6,0,0,1-23.1-12.69c-6.51-6.64-13.17-13.16-19.67-19.82-3.09-3.17-6.24-6.31-8.6-10.12a39.1,39.1,0,0,1-5.53-12.57c-.59-2.79-1.26-5.57-1.79-8.37a18.65,18.65,0,0,1-.27-3.58q0-25.18.06-50.37a12.43,12.43,0,0,0-.44-2.3Z" transform="translate(584.16 105.03)"/><path d="M-58.33,99.1a24.54,24.54,0,0,1-.9,6.75c-2.13,6.22-4.35,12.41-6.58,18.6-.71,2-1.46,4-2.32,6a9.43,9.43,0,0,1-8.72,5.87c-.64,0-1.28,0-1.92,0q-74.14,0-148.28,0a38.37,38.37,0,0,1-5.25-.35c-1.88-.27-2.64-.91-2.67-2.77a46.79,46.79,0,0,1,.51-7.38c.44-3.23,1.21-6.41,1.64-9.64.67-5.06,1.3-10.13,1.7-15.22.37-4.86.59-9.74.6-14.61q.18-54.57.22-109.15,0-23.15-.29-46.29a92.7,92.7,0,0,0-.95-9.52c-.37-3.09-.73-6.18-1.23-9.24-.45-2.74-1.14-5.45-1.63-8.18-.45-2.49-.79-5-1.21-7.64L-234-104c8.4-1.51,16.89-.8,25.34-.82q60.93-.11,121.88,0a23.5,23.5,0,0,1,6.33,1,4.14,4.14,0,0,1,2.36,2.16c.89,2.19,1.41,4.53,2.09,6.81,1.31,4.42,2.67,8.82,4,13.25.78,2.67,1.46,5.36,2.18,8.05.25.92.49,1.84.84,3.13a23.94,23.94,0,0,1-1.7,1.77,1.35,1.35,0,0,1-1.08.26c-2.88-.78-5.7-1.81-8.61-2.4-5.2-1-10.19-2.92-15.55-3.44-4.4-.43-8.77-.53-13.16-.54q-37.3,0-74.62,0c-2.22,0-4.44.47-6.66.62a5.06,5.06,0,0,0-4.47,4.83c-.1,2.07-.12,4.15-.12,6.23q0,27.23-.07,54.45c0,1.12.05,2.24.08,3.36.05,2.6,2.93,5.55,5.71,5.34.79-.07,1.59,0,2.39,0C-160.95.05-135,0-109.13.11A41.45,41.45,0,0,0-95.85-2.38a9.7,9.7,0,0,1,2.54-.55c2.71-.12,4.38,1.39,4.43,4.1.07,4.32,0,8.63,0,13,0,4.48-.08,9,0,13.43a5,5,0,0,1-2.46,4.58,2.9,2.9,0,0,1-2.48.44c-3.73-.89-7.45-1.74-11.18-2.6a5.13,5.13,0,0,0-1-.11c-5.5-.27-11-.73-16.52-.75-20.48-.09-41-.05-61.43,0a43.82,43.82,0,0,0-5.71.47,5.47,5.47,0,0,0-5.11,5.13,19.29,19.29,0,0,0-.11,2.63c0,7.2.1,14.4.1,21.59,0,13-.09,26.07-.08,39.11a15,15,0,0,0,.59,4.22c.7,2.41,2.56,3.54,5,3.75,1.11.1,2.24.07,3.36.06,30.79,0,61.58,0,92.37-.15a81,81,0,0,0,11.14-1.33c2.29-.33,4.54-.86,6.8-1.36s4.64-1.11,7-1.65c2.48-.58,5-1.12,7.45-1.7C-60.33,99.68-59.59,99.45-58.33,99.1Z" transform="translate(584.16 105.03)"/><path d="M438.36-103.48c.25-.22.37-.41.49-.41,3.58-.16,7.06-1,10.69-1q68.74.14,137.49,0a31.73,31.73,0,0,1,6.57,1.06,3.16,3.16,0,0,1,2.35,2.45c1.19,4.12,2.57,8.19,3.82,12.29.8,2.66,1.5,5.36,2.24,8,.85,3,1.67,6.1,2.59,9.12.3,1,.48,1.88-.35,2.65a2.22,2.22,0,0,1-3,.52A19.43,19.43,0,0,0,597-70c-5-1.27-9.91-2.71-14.94-3.74a50.69,50.69,0,0,0-10-1q-41.64-.12-83.26,0a25.51,25.51,0,0,0-6.15.82c-2.14.52-3.14,2.34-3.59,4.35a14.86,14.86,0,0,0-.19,3.34q0,29.51,0,59c0,1.78.06,3.51,1.33,4.94S482.68.15,484.64.05c.87,0,1.76,0,2.64,0,25.75,0,51.5-.06,77.26.06a39.4,39.4,0,0,0,13.71-2.6c2.26-.81,4.66-.94,6,1.23a5.93,5.93,0,0,1,.86,2.63c.14,2.31.08,4.63.08,7,0,6.4,0,12.8,0,19.19a5.06,5.06,0,0,1-1.51,3.88,3.68,3.68,0,0,1-4.11,1,65.7,65.7,0,0,0-7-1.58c-8.44-1.67-17-1.72-25.53-1.73q-28.68,0-57.35,0a29.21,29.21,0,0,0-4.76.39c-4,.66-5.75,2.68-5.84,6.81-.08,3.6,0,7.2,0,10.8q0,25.19-.05,50.37a12.12,12.12,0,0,0,.77,4.92A5.57,5.57,0,0,0,485,106c1,.08,1.92,0,2.88,0,30.95,0,61.9,0,92.86-.15a79.64,79.64,0,0,0,11.14-1.33c2.28-.33,4.54-.88,6.79-1.39s4.65-1.1,7-1.66c2.09-.51,4.17-1,6.27-1.52,1.07-.25,2.15-.46,3.37-.72.1.18.41.46.37.69-.37,2.26-.67,4.54-1.24,6.76s-1.4,4.55-2.21,6.79q-1.89,5.27-3.91,10.48c-.94,2.42-1.92,4.83-3,7.21-1.49,3.44-4.42,4.72-7.91,5-.87.08-1.76,0-2.64,0q-74,0-148,0a38.42,38.42,0,0,1-5.25-.4c-1.68-.22-2.4-1-2.44-2.66a37.32,37.32,0,0,1,.27-6c.65-4.65,1.52-9.27,2.2-13.93a172,172,0,0,0,1.84-22.44c.11-6.72.12-13.44.18-20.15.09-9.59.23-19.18.29-28.77Q444,15.8,444-10.35c0-7.43-.16-14.87-.25-22.3-.14-11.67-.3-23.34-.42-35A116.3,116.3,0,0,0,441.54-86q-1.26-7.43-2.56-14.84C438.82-101.75,438.55-102.65,438.36-103.48Z" transform="translate(584.16 105.03)"/><path d="M89.2,15.68V-29.66c0-2.56-.07-5.12,0-7.68a46,46,0,0,1,9.57-27.14,93.27,93.27,0,0,1,7.83-8.45q9.78-9.9,19.65-19.69a40.78,40.78,0,0,1,12-8.3,50.87,50.87,0,0,1,11.61-3.38,53.45,53.45,0,0,1,10.23-.65c20.79,0,41.59-.16,62.38,0,11.27.1,21.35,3.82,29.55,11.8,5.24,5.1,10.3,10.39,15.46,15.58,3.42,3.45,6.86,6.88,10.27,10.33a42.9,42.9,0,0,1,9.46,14.91A45,45,0,0,1,290-33.54a6.72,6.72,0,0,1-5.38,6.46c-4.4,1-8.83,2-13.23,3-2.3.53-4.58,1.14-6.88,1.68-.62.14-1.28.1-1.9.21-1.09.19-2.17.43-3.24.66a4.65,4.65,0,0,1-3.43-.41,3.15,3.15,0,0,1-1.91-3c0-1.12,0-2.24.05-3.36a28.81,28.81,0,0,0-6.1-18.6C244.92-51,241-54.39,237.28-58c-2.61-2.53-5.3-5-8-7.41a33.58,33.58,0,0,0-9.65-5.77c-5.82-2.43-11.87-2.78-18-2.74-8.48,0-17-.08-25.43.05a64.6,64.6,0,0,0-10.95,1,30.88,30.88,0,0,0-10.38,4.29c-3.55,2.19-6.43,5.15-9.41,8-3.72,3.54-7.39,7.14-10.94,10.85-2.73,2.85-5.37,5.86-6.9,9.57a34.49,34.49,0,0,0-1.48,5.24c-1.59,6.69-.92,13.51-.94,20.28-.07,23.59,0,47.18,0,70.76a42.13,42.13,0,0,0,3.19,16,34.37,34.37,0,0,0,6.22,9.8c2.51,2.85,5.08,5.67,7.82,8.29a62.92,62.92,0,0,0,17.09,11.73c3.72,1.72,7.66,2.6,11.52,3.82a13.37,13.37,0,0,0,3.81.34q14.63,0,29.26,0c1.28,0,2.56-.09,3.84-.05,7.5.25,14-2.56,20-6.72,6.29-4.35,11.4-9.95,16.3-15.75,2.6-3.08,5.4-6,7.26-9.67a24.59,24.59,0,0,0,2.75-10,55.35,55.35,0,0,0,0-5.76c-.2-3.68,2.3-4.9,5.1-4.77a34.83,34.83,0,0,1,5,.66q7.4,1.43,14.77,3,3.72.78,7.39,1.73c3.26.84,4.36,3.61,4.45,6.36a57.33,57.33,0,0,1-.91,11.69,44.79,44.79,0,0,1-6.41,16c-2.58,4.15-6.07,7.45-9.46,10.88-6.07,6.12-12,12.35-18.1,18.5a49.19,49.19,0,0,1-12.75,9.48A50.66,50.66,0,0,1,230,136a47.68,47.68,0,0,1-9.29.7c-20.63,0-41.26,0-61.9.06A47.65,47.65,0,0,1,125,123.06c-7.68-7.81-15.44-15.55-23.1-23.39a43.59,43.59,0,0,1-8.47-12.51A51.35,51.35,0,0,1,90,75.57a46.66,46.66,0,0,1-.67-9q0-25.43,0-50.85Z" transform="translate(584.16 105.03)"/></svg>